<svg width="28" height="28" viewBox="0 0 28 28" fill="black" xmlns="http://www.w3.org/2000/svg">
<path fill-rule="evenodd" clip-rule="evenodd" d="M11.8381 23.4896C5.35132 23.4896 0.0927734 18.2313 0.0927734 11.7448C0.0927734 5.25832 5.35132 0 11.8381 0C18.3249 0 23.5834 5.25832 23.5834 11.7448C23.5834 14.4589 22.6627 16.958 21.1167 18.9467L27.5578 25.3877C28.1311 25.961 28.1311 26.8906 27.5578 27.4639C26.9845 28.0372 26.0549 28.0372 25.4816 27.4639L19.0403 21.023C17.0515 22.5689 14.5523 23.4896 11.8381 23.4896ZM20.647 11.7448C20.647 16.6096 16.7031 20.5534 11.8381 20.5534C6.97301 20.5534 3.0291 16.6096 3.0291 11.7448C3.0291 6.87994 6.97301 2.9362 11.8381 2.9362C16.7031 2.9362 20.647 6.87994 20.647 11.7448Z" fill="black"/>
</svg>
