<svg width="22" height="20" viewBox="0 0 22 20" fill="none" xmlns="http://www.w3.org/2000/svg">
<path d="M21.4068 9.07081C21.6535 8.89576 21.8365 8.65157 21.9301 8.37247C22.0237 8.09337 22.0233 7.79335 21.9289 7.51449C21.8345 7.23563 21.6508 6.99191 21.4036 6.8175C21.1565 6.64308 20.8582 6.54673 20.5506 6.54195L14.5773 6.32699C14.548 6.32506 14.5198 6.31508 14.4963 6.29826C14.4727 6.28143 14.4548 6.25848 14.4446 6.23216L12.3805 0.92155C12.2768 0.651366 12.0884 0.418065 11.8409 0.253232C11.5934 0.0884004 11.2987 0 10.9967 0C10.6947 0 10.4 0.0884004 10.1525 0.253232C9.90494 0.418065 9.71658 0.651366 9.61287 0.92155L7.5554 6.25113C7.54523 6.27744 7.52728 6.3004 7.50373 6.31722C7.48018 6.33405 7.45203 6.34403 7.42266 6.34596L1.44935 6.56091C1.1418 6.5657 0.843527 6.66205 0.596362 6.83646C0.349196 7.01087 0.165532 7.2546 0.0711202 7.53346C-0.0232913 7.81232 -0.0237148 8.11233 0.0699088 8.39144C0.163532 8.67054 0.346508 8.91473 0.59318 9.08977L5.2789 12.5986C5.30236 12.6162 5.31988 12.6399 5.32932 12.6669C5.33876 12.6938 5.33969 12.7228 5.332 12.7503L3.71921 18.1937C3.63563 18.4709 3.64373 18.7659 3.7424 19.0385C3.84106 19.3112 4.02551 19.5482 4.27064 19.7175C4.51578 19.8868 4.8097 19.98 5.11242 19.9845C5.41514 19.989 5.71196 19.9045 5.96252 19.7426L10.9137 16.5815C10.9381 16.5655 10.967 16.5569 10.9967 16.5569C11.0263 16.5569 11.0553 16.5655 11.0796 16.5815L16.0308 19.7426C16.278 19.91 16.5738 20 16.8771 20C17.1804 20 17.4761 19.91 17.7233 19.7426C17.9685 19.5749 18.1531 19.339 18.2518 19.0673C18.3504 18.7956 18.3582 18.5014 18.2742 18.2253L16.6481 12.7629C16.6395 12.7355 16.64 12.7062 16.6495 12.6791C16.659 12.6519 16.677 12.6282 16.7012 12.6112L21.4068 9.07081Z" fill="#FAD200"/>
</svg>
